<svg width="68" height="68" viewBox="0 0 68 68" fill="none" xmlns="http://www.w3.org/2000/svg">
    <g clip-path="url(#clip0_281_68)">
        <path
            d="M34.0002 42.7078C33.4993 42.7078 33.0188 42.5088 32.6646 42.1545C32.3103 41.8003 32.1113 41.3199 32.1113 40.8189V18.1522C32.1113 17.6513 32.3103 17.1708 32.6646 16.8166C33.0188 16.4623 33.4993 16.2633 34.0002 16.2633C34.5012 16.2633 34.9816 16.4623 35.3359 16.8166C35.6901 17.1708 35.8891 17.6513 35.8891 18.1522V40.8189C35.8891 41.3199 35.6901 41.8003 35.3359 42.1545C34.9816 42.5088 34.5012 42.7078 34.0002 42.7078Z"
            fill="#F05757" />
        <path
            d="M34.0001 64.2222C28.0227 64.2222 22.1795 62.4497 17.2095 59.1289C12.2395 55.808 8.36582 51.0879 6.07838 45.5655C3.79093 40.0432 3.19243 33.9665 4.35856 28.1039C5.52469 22.2414 8.40308 16.8563 12.6297 12.6297C16.8564 8.40302 22.2415 5.52463 28.104 4.3585C33.9665 3.19237 40.0432 3.79087 45.5656 6.07831C51.088 8.36576 55.8081 12.2394 59.1289 17.2094C62.4498 22.1795 64.2223 28.0226 64.2223 34C64.2223 42.0154 61.0382 49.7026 55.3704 55.3703C49.7026 61.0381 42.0155 64.2222 34.0001 64.2222ZM34.0001 7.55556C28.7698 7.55556 23.6571 9.1065 19.3083 12.0123C14.9596 14.918 11.5701 19.0481 9.56859 23.8802C7.56707 28.7122 7.04338 34.0293 8.06375 39.1591C9.08411 44.2888 11.6027 49.0007 15.301 52.6991C18.9993 56.3974 23.7113 58.916 28.841 59.9363C33.9707 60.9567 39.2878 60.433 44.1199 58.4315C48.952 56.43 53.0821 53.0405 55.9878 48.6918C58.8936 44.343 60.4445 39.2302 60.4445 34C60.4445 26.9865 57.6584 20.2603 52.6991 15.301C47.7398 10.3417 41.0136 7.55556 34.0001 7.55556Z"
            fill="#F05757" />
        <path
            d="M34.037 52.1235C36.1439 52.1235 37.8519 50.4156 37.8519 48.3087C37.8519 46.2018 36.1439 44.4938 34.037 44.4938C31.9301 44.4938 30.2222 46.2018 30.2222 48.3087C30.2222 50.4156 31.9301 52.1235 34.037 52.1235Z"
            fill="#F05757" />
    </g>
    <defs>
        <clipPath id="clip0_281_68">
            <rect width="68" height="68" fill="white" />
        </clipPath>
    </defs>
</svg>