<svg xmlns="http://www.w3.org/2000/svg" width="80" height="80" viewBox="0 0 80 80" fill="none">
  <path fill-rule="evenodd" clip-rule="evenodd"
    d="M44 8C44 6.93913 43.5786 5.92172 42.8284 5.17157C42.0783 4.42143 41.0609 4 40 4C38.9391 4 37.9217 4.42143 37.1716 5.17157C36.4214 5.92172 36 6.93913 36 8V38.96L20.692 25.04C20.3033 24.6865 19.8488 24.413 19.3543 24.2351C18.8599 24.0573 18.3353 23.9785 17.8105 24.0034C17.2857 24.0283 16.7709 24.1563 16.2955 24.3802C15.8201 24.604 15.3935 24.9193 15.04 25.308C14.6865 25.6967 14.413 26.1512 14.2351 26.6457C14.0573 27.1401 13.9785 27.6647 14.0034 28.1895C14.0283 28.7143 14.1563 29.2291 14.3802 29.7045C14.604 30.1799 14.9193 30.6065 15.308 30.96L37.308 50.96C38.0444 51.6301 39.0043 52.0014 40 52.0014C40.9957 52.0014 41.9556 51.6301 42.692 50.96L64.692 30.96C65.477 30.246 65.9463 29.2495 65.9966 28.1895C66.0468 27.1295 65.674 26.093 64.96 25.308C64.246 24.523 63.2495 24.0537 62.1895 24.0034C61.1295 23.9532 60.093 24.326 59.308 25.04L44 38.96V8ZM12.42 44.816C11.8269 44.3653 11.1197 44.0892 10.3782 44.0188C9.6366 43.9484 8.8901 44.0864 8.22276 44.4174C7.55543 44.7484 6.99377 45.2591 6.60105 45.8921C6.20833 46.525 6.00017 47.2551 6 48V63.468C6.00288 64.5968 6.24248 65.7125 6.70334 66.7429C7.16419 67.7734 7.83605 68.6957 8.67552 69.4504C9.51499 70.205 10.5034 70.7752 11.5769 71.1241C12.6505 71.473 13.7853 71.5929 14.908 71.476C20.604 70.888 30.748 70 40 70C49.544 70 60.992 70.944 67.18 71.532C68.2958 71.6389 69.4216 71.5117 70.4853 71.1585C71.5491 70.8053 72.5274 70.2339 73.3576 69.4808C74.1879 68.7278 74.8517 67.8097 75.3067 66.7853C75.7617 65.761 75.9979 64.6529 76 63.532V48C76 46.9391 75.5786 45.9217 74.8284 45.1716C74.0783 44.4214 73.0609 44 72 44C70.9391 44 69.9217 44.4214 69.1716 45.1716C68.4214 45.9217 68 46.9391 68 48V63.536L12.42 44.816ZM12.42 44.816L67.988 63.548C67.9803 63.5567 67.9707 63.5636 67.96 63.568H67.936C61.704 62.976 49.94 62 40 62C30.336 62 19.864 62.92 14.088 63.52H14.052C14.0302 63.5116 14.0119 63.4961 14 63.476V48C14.0009 47.3836 13.8591 46.7754 13.5857 46.223C13.3123 45.6706 12.9107 45.189 12.42 44.816Z"
    fill="#3C9F46" />
</svg>