<svg xmlns="http://www.w3.org/2000/svg" width="245" height="40" viewBox="0 0 245 40" fill="none">
    <g clip-path="url(#clip0_4_3)">
      <path d="M22.9653 24.9365C21.8183 26.3077 20.2823 27.426 18.4915 28.1937C16.7007 28.9613 14.7095 29.355 12.692 29.3402C10.9676 29.3572 9.25857 29.0696 7.67964 28.4965C6.1007 27.9234 4.68827 27.0782 3.537 26.0174C1.26236 23.8934 0.00671387 21.1555 0.00671387 18.3196C0.00671387 15.4838 1.26236 12.7458 3.537 10.6219C4.68827 9.56111 6.1007 8.71586 7.67964 8.14277C9.25857 7.56969 10.9676 7.28201 12.692 7.29902C14.7095 7.28427 16.7007 7.67793 18.4915 8.44559C20.2823 9.21325 21.8183 10.3316 22.9653 11.7028C23.3864 12.2103 23.551 12.8335 23.4241 13.4398C23.2972 14.0461 22.8888 14.5875 22.2858 14.9487C21.9809 15.1237 21.6369 15.247 21.2738 15.3115C20.9108 15.376 20.5358 15.3803 20.1708 15.3242C19.8057 15.2681 19.4577 15.1527 19.147 14.9848C18.8362 14.8168 18.569 14.5996 18.3606 14.3457C17.7228 13.5954 16.8733 12.9848 15.8856 12.5668C14.8979 12.1488 13.8017 11.9359 12.692 11.9465C8.62313 11.9465 5.66853 14.6279 5.66853 18.31C5.66853 21.9921 8.62313 24.7248 12.692 24.7248C13.8021 24.7351 14.8985 24.5217 15.8862 24.1031C16.8739 23.6845 17.7232 23.0733 18.3606 22.3225C18.5653 22.0654 18.8299 21.8446 19.139 21.673C19.4482 21.5014 19.7956 21.3824 20.1611 21.323C20.5265 21.2636 20.9026 21.2649 21.2674 21.3269C21.6323 21.3889 21.9785 21.5104 22.2858 21.6842C22.8926 22.0445 23.3038 22.5872 23.4309 23.1955C23.558 23.8038 23.3908 24.429 22.9653 24.9365Z" fill="#4F4F4F"/>
      <path d="M81.9296 9.81684V28.7405C81.9308 31.1451 80.9642 33.4818 79.1819 35.383C77.3996 37.2841 74.9027 38.6418 72.0841 39.2423C69.2656 39.8429 66.2853 39.6523 63.6122 38.7005C60.9392 37.7487 58.725 36.0897 57.3182 33.9846C56.9578 33.4431 56.8725 32.8056 57.0811 32.2122C57.2897 31.6188 57.7751 31.1182 58.4305 30.8205C59.0859 30.5227 59.8577 30.4523 60.576 30.6246C61.2943 30.7969 61.9002 31.1979 62.2606 31.7394C63.0764 32.9243 64.342 33.8542 65.8616 34.3854C67.3812 34.9166 69.0704 35.0195 70.6679 34.6781C72.2654 34.3368 73.6824 33.5703 74.6997 32.497C75.717 31.4237 76.278 30.1035 76.296 28.7405V27.7782C74.2061 28.94 71.741 29.5548 69.2221 29.5423C67.4901 29.5599 65.7734 29.2727 64.1862 28.6997C62.599 28.1268 61.1776 27.2813 60.0166 26.2195C57.7077 24.1148 56.4579 21.3616 56.5223 18.5217C56.5223 15.5581 57.7336 12.7965 60.0166 10.7951C61.1776 9.73323 62.599 8.88773 64.1862 8.3148C65.7734 7.74188 67.4901 7.45466 69.2221 7.47224C71.7623 7.46094 74.2462 8.08975 76.3426 9.27479C76.4838 8.70192 76.8802 8.19375 77.4535 7.85095C78.0267 7.50816 78.7349 7.35575 79.4378 7.42394C80.1406 7.49213 80.7868 7.77594 81.2483 8.21913C81.7098 8.66231 81.953 9.23255 81.9296 9.81684ZM76.296 18.5345C76.296 14.8108 73.291 12.1197 69.2221 12.1197C65.1532 12.1197 62.1481 14.8011 62.1481 18.5345C62.1481 22.2679 65.1182 24.8916 69.2376 24.8916C73.357 24.8916 76.296 22.2166 76.296 18.5345Z" fill="#4F4F4F"/>
      <path d="M107.946 16.8539V27.0181C107.946 27.6391 107.648 28.2346 107.116 28.6737C106.585 29.1128 105.864 29.3595 105.112 29.3595C104.36 29.3595 103.639 29.1128 103.108 28.6737C102.576 28.2346 102.278 27.6391 102.278 27.0181V16.8539C102.278 14.49 100.682 11.9305 97.0945 11.9305C93.8487 11.9305 91.426 14.0506 91.426 16.8539V27.0181C91.426 27.634 91.1298 28.2246 90.6027 28.6601C90.0755 29.0956 89.3605 29.3403 88.615 29.3403C87.8695 29.3403 87.1545 29.0956 86.6274 28.6601C86.1002 28.2246 85.8041 27.634 85.8041 27.0181V9.60838C85.8062 9.07772 86.0277 8.56358 86.4319 8.15112C86.8361 7.73865 87.3987 7.4526 88.0265 7.34034C88.6543 7.22808 89.3097 7.29634 89.8842 7.53381C90.4586 7.77129 90.9177 8.16374 91.1853 8.64616C92.9604 7.74169 95.009 7.27024 97.0945 7.28622C103.248 7.28622 107.946 11.4206 107.946 16.8539Z" fill="#4F4F4F"/>
      <path d="M125.146 29.4621C122.505 29.459 119.924 28.8088 117.73 27.5938C115.537 26.3789 113.828 24.6538 112.822 22.6367C111.815 20.6196 111.555 18.4011 112.074 16.2619C112.594 14.1227 113.87 12.1589 115.741 10.6188C117.611 9.07866 119.993 8.03149 122.584 7.60973C125.176 7.18796 127.86 7.41053 130.298 8.2493C132.736 9.08806 134.819 10.5053 136.282 12.3219C137.745 14.1384 138.523 16.2725 138.517 18.4544C138.515 19.9026 138.167 21.3362 137.493 22.6733C136.82 24.0103 135.834 25.2247 134.593 26.2469C133.351 27.2692 131.877 28.0793 130.256 28.631C128.636 29.1827 126.899 29.4651 125.146 29.4621ZM125.146 12.0492C123.617 12.0448 122.122 12.4148 120.848 13.1125C119.574 13.8102 118.579 14.8043 117.988 15.9691C117.398 17.1339 117.239 18.4171 117.531 19.6565C117.824 20.896 118.554 22.036 119.631 22.9324C120.707 23.8289 122.081 24.4416 123.579 24.6931C125.077 24.9445 126.632 24.8235 128.047 24.3453C129.461 23.867 130.672 23.053 131.527 22.0062C132.382 20.9594 132.842 19.7267 132.849 18.464C132.853 16.7717 132.044 15.1472 130.6 13.9469C129.156 12.7467 127.194 12.0688 125.146 12.062V12.0492Z" fill="#4F4F4F"/>
      <path d="M145.448 29.3402C144.702 29.3402 143.987 29.0956 143.46 28.6601C142.933 28.2246 142.637 27.634 142.637 27.0181V3.56242C142.638 2.9471 142.935 2.35728 143.462 1.92249C143.989 1.48769 144.703 1.24347 145.448 1.24347C146.197 1.24255 146.917 1.48526 147.452 1.91916C147.987 2.35306 148.293 2.94333 148.305 3.56242V27.0181C148.294 27.6377 147.988 28.2288 147.453 28.6634C146.918 29.098 146.198 29.3412 145.448 29.3402Z" fill="#4F4F4F"/>
      <path d="M165.746 29.4621C163.104 29.459 160.524 28.8088 158.33 27.5938C156.136 26.3789 154.428 24.6538 153.421 22.6367C152.414 20.6196 152.154 18.4011 152.674 16.2619C153.193 14.1227 154.469 12.1589 156.34 10.6188C158.211 9.07866 160.593 8.03149 163.184 7.60973C165.775 7.18796 168.46 7.41053 170.898 8.2493C173.336 9.08806 175.418 10.5053 176.881 12.3219C178.344 14.1384 179.122 16.2725 179.117 18.4543C179.114 19.9024 178.766 21.3359 178.092 22.6727C177.418 24.0096 176.433 25.2238 175.191 26.246C173.949 27.2682 172.476 28.0783 170.855 28.6301C169.235 29.1819 167.498 29.4647 165.746 29.4621ZM165.746 12.0492C164.217 12.0448 162.721 12.4148 161.447 13.1125C160.173 13.8102 159.178 14.8043 158.588 15.9691C157.998 17.1339 157.839 18.4171 158.131 19.6565C158.423 20.896 159.154 22.036 160.231 22.9324C161.307 23.8289 162.681 24.4416 164.179 24.6931C165.677 24.9445 167.231 24.8235 168.646 24.3453C170.061 23.867 171.272 23.053 172.127 22.0062C172.982 20.9594 173.442 19.7267 173.449 18.464C173.453 16.7717 172.644 15.1472 171.2 13.9469C169.756 12.7467 167.794 12.0688 165.746 12.062V12.0492Z" fill="#4F4F4F"/>
      <path d="M208.384 9.81685V28.7405C208.387 31.1462 207.421 33.4843 205.638 35.3867C203.856 37.289 201.358 38.6475 198.538 39.2483C195.718 39.849 192.736 39.6578 190.063 38.7049C187.389 37.7519 185.174 36.0913 183.768 33.9846C183.408 33.4431 183.323 32.8056 183.531 32.2122C183.74 31.6188 184.225 31.1182 184.881 30.8205C185.536 30.5227 186.308 30.4523 187.026 30.6246C187.745 30.797 188.351 31.1979 188.711 31.7394C189.523 32.9309 190.79 33.8672 192.313 34.4027C193.836 34.9382 195.531 35.0428 197.133 34.7004C198.736 34.358 200.157 33.5877 201.175 32.5093C202.193 31.4308 202.751 30.1047 202.762 28.7373V27.775C200.672 28.9377 198.207 29.5525 195.688 29.5391C193.956 29.5561 192.24 29.2686 190.652 28.6957C189.065 28.1228 187.644 27.2776 186.482 26.2163C184.175 24.1109 182.925 21.3582 182.988 18.5185C182.988 15.5549 184.199 12.7933 186.482 10.7919C187.644 9.73052 189.065 8.88535 190.652 8.31246C192.24 7.73957 193.956 7.45207 195.688 7.46903C198.229 7.45769 200.714 8.08647 202.812 9.27159C202.969 8.71509 203.368 8.22562 203.933 7.8961C204.499 7.56658 205.191 7.41995 205.878 7.48405C206.565 7.54815 207.2 7.81852 207.662 8.24383C208.124 8.66913 208.381 9.21977 208.384 9.79119V9.81685ZM202.762 18.5442C202.762 14.8204 199.757 12.1294 195.688 12.1294C191.619 12.1294 188.618 14.8108 188.618 18.5442C188.618 22.2776 191.572 24.9076 195.688 24.9076C199.803 24.9076 202.762 22.2166 202.762 18.5345V18.5442Z" fill="#4F4F4F"/>
      <path d="M212.503 2.64189C212.508 2.32296 212.59 2.00806 212.744 1.71571C212.899 1.42336 213.122 1.15945 213.402 0.939515C213.682 0.719576 214.012 0.548038 214.373 0.434992C214.734 0.321946 215.118 0.269669 215.504 0.281239C215.895 0.260621 216.287 0.306422 216.656 0.415807C217.024 0.525193 217.362 0.695841 217.647 0.917217C217.933 1.13859 218.161 1.40599 218.316 1.70291C218.472 1.99982 218.552 2.31994 218.552 2.64349C218.552 2.96704 218.472 3.28716 218.316 3.58407C218.161 3.88098 217.933 4.14838 217.647 4.36976C217.362 4.59113 217.024 4.76178 216.656 4.87117C216.287 4.98055 215.895 5.02635 215.504 5.00573C215.118 5.01731 214.733 4.96493 214.372 4.85169C214.01 4.73844 213.68 4.56662 213.401 4.34634C213.121 4.12606 212.897 3.86178 212.743 3.56905C212.589 3.27633 212.507 2.96109 212.503 2.64189ZM218.362 9.60835V27.0181C218.362 27.6391 218.063 28.2346 217.532 28.6737C217 29.1128 216.279 29.3595 215.528 29.3595C214.776 29.3595 214.055 29.1128 213.523 28.6737C212.992 28.2346 212.693 27.6391 212.693 27.0181V9.60835C212.693 8.98737 212.992 8.39182 213.523 7.95272C214.055 7.51363 214.776 7.26694 215.528 7.26694C216.279 7.26694 217 7.51363 217.532 7.95272C218.063 8.39182 218.362 8.98737 218.362 9.60835Z" fill="#4F4F4F"/>
      <path d="M244.383 25.578C244.708 25.9193 244.91 26.3289 244.968 26.7605C245.025 27.192 244.935 27.6282 244.708 28.0198C244.481 28.4113 244.126 28.7425 243.683 28.9759C243.24 29.2092 242.726 29.3355 242.201 29.3403C241.775 29.3338 241.356 29.252 240.971 29.1004C240.587 28.9488 240.246 28.7309 239.972 28.4614L233.818 22.0466L227.715 28.4614C227.441 28.7309 227.1 28.9488 226.716 29.1004C226.332 29.252 225.912 29.3338 225.486 29.3403C224.961 29.3355 224.447 29.2092 224.004 28.9759C223.561 28.7425 223.206 28.4113 222.979 28.0198C222.752 27.6282 222.662 27.192 222.719 26.7605C222.777 26.3289 222.98 25.9193 223.304 25.578L230.235 18.294L223.304 11.0485C223.074 10.8123 222.902 10.5408 222.799 10.2495C222.697 9.95829 222.665 9.65308 222.705 9.35158C222.746 9.05007 222.859 8.75823 223.037 8.49292C223.215 8.2276 223.455 7.99406 223.743 7.80581C224.329 7.42141 225.075 7.24382 225.819 7.3117C226.563 7.37958 227.245 7.68742 227.715 8.16823L233.818 14.583L239.972 8.16823C240.443 7.68742 241.124 7.37958 241.868 7.3117C242.612 7.24382 243.358 7.42141 243.944 7.80581C244.232 7.99432 244.471 8.22796 244.649 8.49328C244.827 8.75859 244.939 9.05035 244.98 9.35173C245.021 9.65312 244.989 9.95819 244.887 10.2494C244.784 10.5406 244.613 10.8122 244.383 11.0485L237.452 18.294L244.383 25.578Z" fill="#4F4F4F"/>
      <path d="M39.2952 7.2862C36.4136 7.29094 33.6113 8.06661 31.3079 9.49706C29.0045 10.9275 27.3239 12.9358 26.5177 15.2213C25.353 17.4504 24.1882 17.4087 23.4544 17.4087C23.3108 17.4087 20.9114 17.4825 20.0999 17.4087C18.8769 17.2901 18.2324 16.1771 18.2324 16.1771C17.6714 15.1853 16.7178 14.3812 15.5289 13.8976C14.34 13.414 12.9871 13.2798 11.6934 13.5172C10.3998 13.7545 9.24282 14.3493 8.41357 15.2032C7.58432 16.0571 7.13239 17.1191 7.13239 18.2138C7.13239 19.3085 7.58432 20.3705 8.41357 21.2244C9.24282 22.0783 10.3998 22.6731 11.6934 22.9104C12.9871 23.1478 14.34 23.0136 15.5289 22.53C16.7178 22.0464 17.6714 21.2423 18.2324 20.2505C18.3673 19.9631 18.5866 19.7079 18.8706 19.5081C19.1546 19.3082 19.4943 19.1698 19.8592 19.1055C19.8592 19.1055 22.0722 19.067 24.394 19.067C25.1705 19.067 25.8228 19.8464 26.2848 20.7027C26.4809 21.4187 26.7618 22.117 27.1234 22.7875L27.1506 22.887V22.8325C28.1392 24.6387 29.699 26.1913 31.6659 27.3267C33.6327 28.4622 35.9338 29.1386 38.3268 29.2846C40.7198 29.4306 43.1162 29.0409 45.2636 28.1565C47.4111 27.2721 49.2301 25.9256 50.5292 24.259C51.8283 22.5924 52.5594 20.6672 52.6455 18.6862C52.7316 16.7052 52.1695 14.7417 51.0184 13.0024C49.8673 11.2632 48.1698 9.81246 46.1046 8.8031C44.0395 7.79374 41.6831 7.26306 39.2835 7.26696L39.2952 7.2862ZM39.2952 24.6992C37.7642 24.7036 36.266 24.3324 34.9908 23.6325C33.7155 22.9327 32.7205 21.9357 32.1319 20.7681C31.5434 19.6005 31.3878 18.3149 31.6848 17.0741C31.9819 15.8334 32.7183 14.6934 33.8006 13.7989C34.883 12.9043 36.2625 12.2954 37.7642 12.0494C39.266 11.8033 40.8224 11.9312 42.2361 12.4168C43.6498 12.9024 44.857 13.7239 45.7048 14.7771C46.5526 15.8303 47.0028 17.0677 46.9981 18.3325C46.993 20.0192 46.18 21.6356 44.7366 22.8286C43.2932 24.0216 41.3369 24.6941 39.2952 24.6992Z" fill="url(#paint0_linear_4_3)"/>
    </g>
    <defs>
      <linearGradient id="paint0_linear_4_3" x1="6.63915" y1="30.2479" x2="42.3842" y2="7.48833" gradientUnits="userSpaceOnUse">
        <stop stop-color="#FBCF32"/>
        <stop offset="1" stop-color="#F05757"/>
      </linearGradient>
      <clipPath id="clip0_4_3">
        <rect width="245" height="39.3034" fill="white" transform="translate(0 0.28125)"/>
      </clipPath>
    </defs>
  </svg>